<svg xmlns="http://www.w3.org/2000/svg" viewBox="0 0 1100 750" width="1100" height="750">
  <rect width="1100" height="750" fill="#f0f4ff"/>
  <text x="550" y="35" text-anchor="middle" font-family="Arial" font-size="18" font-weight="bold" fill="#1e3a8a">Smart Internship Portal — ERD (intern_portal)</text>

  <!-- users -->
  <rect x="10" y="60" width="160" height="160" rx="8" fill="white" stroke="#2563eb" stroke-width="2"/>
  <rect x="10" y="60" width="160" height="30" rx="8" fill="#2563eb"/>
  <text x="90" y="80" text-anchor="middle" font-family="Arial" font-size="13" font-weight="bold" fill="white">users</text>
  <text x="20" y="108" font-family="Arial" font-size="11" fill="#334155">🔑 id (PK)</text>
  <text x="20" y="124" font-family="Arial" font-size="11" fill="#334155">email</text>
  <text x="20" y="140" font-family="Arial" font-size="11" fill="#334155">username</text>
  <text x="20" y="156" font-family="Arial" font-size="11" fill="#334155">password_hash</text>
  <text x="20" y="172" font-family="Arial" font-size="11" fill="#334155">enabled</text>
  <text x="20" y="188" font-family="Arial" font-size="11" fill="#334155">created_at</text>
  <text x="20" y="204" font-family="Arial" font-size="11" fill="#334155">is_deleted</text>

  <!-- roles -->
  <rect x="200" y="60" width="150" height="100" rx="8" fill="white" stroke="#7c3aed" stroke-width="2"/>
  <rect x="200" y="60" width="150" height="30" rx="8" fill="#7c3aed"/>
  <text x="275" y="80" text-anchor="middle" font-family="Arial" font-size="13" font-weight="bold" fill="white">roles</text>
  <text x="210" y="108" font-family="Arial" font-size="11" fill="#334155">🔑 id (PK)</text>
  <text x="210" y="124" font-family="Arial" font-size="11" fill="#334155">name (STUDENT/COMPANY/ADMIN)</text>

  <!-- user_roles -->
  <rect x="200" y="185" width="150" height="85" rx="8" fill="white" stroke="#7c3aed" stroke-width="2" stroke-dasharray="5,3"/>
  <rect x="200" y="185" width="150" height="30" rx="8" fill="#7c3aed"/>
  <text x="275" y="205" text-anchor="middle" font-family="Arial" font-size="13" font-weight="bold" fill="white">user_roles</text>
  <text x="210" y="232" font-family="Arial" font-size="11" fill="#334155">🔗 user_id (FK → users)</text>
  <text x="210" y="248" font-family="Arial" font-size="11" fill="#334155">🔗 role_id (FK → roles)</text>

  <!-- students -->
  <rect x="10" y="290" width="170" height="200" rx="8" fill="white" stroke="#059669" stroke-width="2"/>
  <rect x="10" y="290" width="170" height="30" rx="8" fill="#059669"/>
  <text x="95" y="310" text-anchor="middle" font-family="Arial" font-size="13" font-weight="bold" fill="white">students</text>
  <text x="20" y="338" font-family="Arial" font-size="11" fill="#334155">🔑 id (PK)</text>
  <text x="20" y="354" font-family="Arial" font-size="11" fill="#334155">🔗 user_id (FK → users)</text>
  <text x="20" y="370" font-family="Arial" font-size="11" fill="#334155">full_name</text>
  <text x="20" y="386" font-family="Arial" font-size="11" fill="#334155">email</text>
  <text x="20" y="402" font-family="Arial" font-size="11" fill="#334155">university</text>
  <text x="20" y="418" font-family="Arial" font-size="11" fill="#334155">gpa</text>
  <text x="20" y="434" font-family="Arial" font-size="11" fill="#334155">skills</text>
  <text x="20" y="450" font-family="Arial" font-size="11" fill="#334155">cv_path</text>
  <text x="20" y="466" font-family="Arial" font-size="11" fill="#334155">profile_complete</text>

  <!-- companies -->
  <rect x="200" y="290" width="170" height="175" rx="8" fill="white" stroke="#d97706" stroke-width="2"/>
  <rect x="200" y="290" width="170" height="30" rx="8" fill="#d97706"/>
  <text x="285" y="310" text-anchor="middle" font-family="Arial" font-size="13" font-weight="bold" fill="white">companies</text>
  <text x="210" y="338" font-family="Arial" font-size="11" fill="#334155">🔑 id (PK)</text>
  <text x="210" y="354" font-family="Arial" font-size="11" fill="#334155">🔗 user_id (FK → users)</text>
  <text x="210" y="370" font-family="Arial" font-size="11" fill="#334155">name</text>
  <text x="210" y="386" font-family="Arial" font-size="11" fill="#334155">industry</text>
  <text x="210" y="402" font-family="Arial" font-size="11" fill="#334155">location</text>
  <text x="210" y="418" font-family="Arial" font-size="11" fill="#334155">website</text>
  <text x="210" y="434" font-family="Arial" font-size="11" fill="#334155">logo_path</text>
  <text x="210" y="450" font-family="Arial" font-size="11" fill="#334155">is_deleted</text>

  <!-- job_postings -->
  <rect x="400" y="200" width="185" height="220" rx="8" fill="white" stroke="#dc2626" stroke-width="2"/>
  <rect x="400" y="200" width="185" height="30" rx="8" fill="#dc2626"/>
  <text x="492" y="220" text-anchor="middle" font-family="Arial" font-size="13" font-weight="bold" fill="white">job_postings</text>
  <text x="410" y="248" font-family="Arial" font-size="11" fill="#334155">🔑 id (PK)</text>
  <text x="410" y="264" font-family="Arial" font-size="11" fill="#334155">🔗 company_id (FK → companies)</text>
  <text x="410" y="280" font-family="Arial" font-size="11" fill="#334155">title</text>
  <text x="410" y="296" font-family="Arial" font-size="11" fill="#334155">description</text>
  <text x="410" y="312" font-family="Arial" font-size="11" fill="#334155">required_skills</text>
  <text x="410" y="328" font-family="Arial" font-size="11" fill="#334155">min_gpa</text>
  <text x="410" y="344" font-family="Arial" font-size="11" fill="#334155">deadline</text>
  <text x="410" y="360" font-family="Arial" font-size="11" fill="#334155">status (OPEN/CLOSED)</text>
  <text x="410" y="376" font-family="Arial" font-size="11" fill="#334155">created_at</text>
  <text x="410" y="392" font-family="Arial" font-size="11" fill="#334155">is_deleted</text>

  <!-- applications -->
  <rect x="400" y="445" width="185" height="175" rx="8" fill="white" stroke="#0891b2" stroke-width="2"/>
  <rect x="400" y="445" width="185" height="30" rx="8" fill="#0891b2"/>
  <text x="492" y="465" text-anchor="middle" font-family="Arial" font-size="13" font-weight="bold" fill="white">applications</text>
  <text x="410" y="493" font-family="Arial" font-size="11" fill="#334155">🔑 id (PK)</text>
  <text x="410" y="509" font-family="Arial" font-size="11" fill="#334155">🔗 student_id (FK → students)</text>
  <text x="410" y="525" font-family="Arial" font-size="11" fill="#334155">🔗 job_posting_id (FK)</text>
  <text x="410" y="541" font-family="Arial" font-size="11" fill="#334155">status</text>
  <text x="410" y="557" font-family="Arial" font-size="11" fill="#334155">applied_at</text>
  <text x="410" y="573" font-family="Arial" font-size="11" fill="#334155">updated_at</text>
  <text x="410" y="589" font-family="Arial" font-size="11" fill="#334155">status_changed_by</text>

  <!-- interview_questions -->
  <rect x="620" y="60" width="200" height="160" rx="8" fill="white" stroke="#be185d" stroke-width="2"/>
  <rect x="620" y="60" width="200" height="30" rx="8" fill="#be185d"/>
  <text x="720" y="80" text-anchor="middle" font-family="Arial" font-size="13" font-weight="bold" fill="white">interview_questions</text>
  <text x="630" y="108" font-family="Arial" font-size="11" fill="#334155">🔑 id (PK)</text>
  <text x="630" y="124" font-family="Arial" font-size="11" fill="#334155">🔗 job_posting_id (FK)</text>
  <text x="630" y="140" font-family="Arial" font-size="11" fill="#334155">question_text</text>
  <text x="630" y="156" font-family="Arial" font-size="11" fill="#334155">category</text>
  <text x="630" y="172" font-family="Arial" font-size="11" fill="#334155">difficulty</text>
  <text x="630" y="188" font-family="Arial" font-size="11" fill="#334155">sample_answer</text>

  <!-- interview_sessions -->
  <rect x="620" y="250" width="200" height="175" rx="8" fill="white" stroke="#be185d" stroke-width="2"/>
  <rect x="620" y="250" width="200" height="30" rx="8" fill="#be185d"/>
  <text x="720" y="270" text-anchor="middle" font-family="Arial" font-size="13" font-weight="bold" fill="white">interview_sessions</text>
  <text x="630" y="298" font-family="Arial" font-size="11" fill="#334155">🔑 id (PK)</text>
  <text x="630" y="314" font-family="Arial" font-size="11" fill="#334155">🔗 student_id (FK → students)</text>
  <text x="630" y="330" font-family="Arial" font-size="11" fill="#334155">🔗 job_posting_id (FK)</text>
  <text x="630" y="346" font-family="Arial" font-size="11" fill="#334155">total_score</text>
  <text x="630" y="362" font-family="Arial" font-size="11" fill="#334155">passed</text>
  <text x="630" y="378" font-family="Arial" font-size="11" fill="#334155">started_at</text>
  <text x="630" y="394" font-family="Arial" font-size="11" fill="#334155">completed_at</text>

  <!-- interview_answers -->
  <rect x="620" y="450" width="200" height="160" rx="8" fill="white" stroke="#be185d" stroke-width="2"/>
  <rect x="620" y="450" width="200" height="30" rx="8" fill="#be185d"/>
  <text x="720" y="470" text-anchor="middle" font-family="Arial" font-size="13" font-weight="bold" fill="white">interview_answers</text>
  <text x="630" y="498" font-family="Arial" font-size="11" fill="#334155">🔑 id (PK)</text>
  <text x="630" y="514" font-family="Arial" font-size="11" fill="#334155">🔗 session_id (FK → sessions)</text>
  <text x="630" y="530" font-family="Arial" font-size="11" fill="#334155">🔗 question_id (FK → questions)</text>
  <text x="630" y="546" font-family="Arial" font-size="11" fill="#334155">answer_text</text>
  <text x="630" y="562" font-family="Arial" font-size="11" fill="#334155">score (0-10)</text>
  <text x="630" y="578" font-family="Arial" font-size="11" fill="#334155">feedback</text>

  <!-- Relationship arrows -->
  <!-- users → user_roles -->
  <line x1="170" y1="140" x2="200" y2="230" stroke="#64748b" stroke-width="1.5" stroke-dasharray="4,3"/>
  <!-- roles → user_roles -->
  <line x1="275" y1="160" x2="275" y2="185" stroke="#64748b" stroke-width="1.5" stroke-dasharray="4,3"/>
  <!-- users → students -->
  <line x1="90" y1="220" x2="90" y2="290" stroke="#059669" stroke-width="2" marker-end="url(#arrow)"/>
  <!-- users → companies -->
  <line x1="170" y1="150" x2="285" y2="290" stroke="#d97706" stroke-width="2" marker-end="url(#arrow)"/>
  <!-- companies → job_postings -->
  <line x1="370" y1="370" x2="400" y2="320" stroke="#dc2626" stroke-width="2" marker-end="url(#arrow)"/>
  <!-- students → applications -->
  <line x1="95" y1="490" x2="400" y2="530" stroke="#0891b2" stroke-width="2" marker-end="url(#arrow)"/>
  <!-- job_postings → applications -->
  <line x1="492" y1="420" x2="492" y2="445" stroke="#0891b2" stroke-width="2" marker-end="url(#arrow)"/>
  <!-- job_postings → interview_questions -->
  <line x1="585" y1="250" x2="620" y2="180" stroke="#be185d" stroke-width="2" marker-end="url(#arrow)"/>
  <!-- job_postings → interview_sessions -->
  <line x1="585" y1="310" x2="620" y2="330" stroke="#be185d" stroke-width="2" marker-end="url(#arrow)"/>
  <!-- students → interview_sessions -->
  <line x1="180" y1="400" x2="620" y2="360" stroke="#be185d" stroke-width="1.5" stroke-dasharray="5,3" marker-end="url(#arrow)"/>
  <!-- sessions → answers -->
  <line x1="720" y1="425" x2="720" y2="450" stroke="#be185d" stroke-width="2" marker-end="url(#arrow)"/>
  <!-- questions → answers -->
  <line x1="820" y1="220" x2="820" y2="450" stroke="#be185d" stroke-width="1.5" stroke-dasharray="4,3" marker-end="url(#arrow)"/>

  <defs>
    <marker id="arrow" markerWidth="8" markerHeight="8" refX="6" refY="3" orient="auto">
      <path d="M0,0 L0,6 L8,3 z" fill="#64748b"/>
    </marker>
  </defs>

  <!-- Legend -->
  <rect x="860" y="60" width="220" height="140" rx="8" fill="white" stroke="#e2e8f0" stroke-width="1.5"/>
  <text x="970" y="82" text-anchor="middle" font-family="Arial" font-size="12" font-weight="bold" fill="#334155">Legend</text>
  <text x="875" y="104" font-family="Arial" font-size="11" fill="#334155">🔑 Primary Key</text>
  <text x="875" y="120" font-family="Arial" font-size="11" fill="#334155">🔗 Foreign Key</text>
  <line x1="875" y1="135" x2="905" y2="135" stroke="#64748b" stroke-width="2"/>
  <text x="910" y="139" font-family="Arial" font-size="11" fill="#334155">FK Relationship</text>
  <line x1="875" y1="155" x2="905" y2="155" stroke="#64748b" stroke-width="1.5" stroke-dasharray="4,3"/>
  <text x="910" y="159" font-family="Arial" font-size="11" fill="#334155">Join / Indirect FK</text>
  <text x="875" y="180" font-family="Arial" font-size="10" fill="#94a3b8">Database: intern_portal</text>
</svg>
